<svg id="Capa_1" enable-background="new 0 0 512.808 512.808" viewBox="0 0 512.808 512.808" width="512" xmlns="http://www.w3.org/2000/svg" xmlns:xlink="http://www.w3.org/1999/xlink"><linearGradient id="SVGID_1_" gradientUnits="userSpaceOnUse" x1="226.129" x2="226.129" y1="17.359" y2="504.896"><stop offset=".00000036422" stop-color="#a8abff"/><stop offset="1" stop-color="#fac8ff"/></linearGradient><linearGradient id="SVGID_2_" gradientUnits="userSpaceOnUse" x1="256.404" x2="256.404" y1=".413" y2="512.395"><stop offset=".00000011981" stop-color="#174fa3"/><stop offset="1" stop-color="#b044af"/></linearGradient><g id="Filled_34_"><path d="m502.536 394.158-156.564-219.972c-4.804-6.749-14.169-8.326-20.919-3.523l-36.662 26.094 71.984 101.138h-259.825v177c0 16.569 13.431 30 30 30h240c16.569 0 30-13.431 30-30v-120.555l61.801 86.83 36.662-26.094c6.75-4.803 8.327-14.169 3.523-20.918z" fill="#fff"/><path d="m363.484 302.263 48.883-34.792 23.775 33.403-48.883 34.792zm-133.436-4.367v207h41v-207zm-155.589-227.671-58.342 8.478 42.216 41.151-9.966 58.106 52.182-27.434 52.182 27.434-9.966-58.106 42.216-41.151-58.342-8.478-26.089-52.866zm114.94 121.854 25.515 8.652 21.592-16.113-.344 26.94 21.997 15.556-25.728 7.997-7.997 25.728-15.556-21.997-26.94.344 16.113-21.592zm30.454-96.462 35.452-17.496 5.685-39.123 27.595 28.31 38.965-6.683-18.397 34.993 18.397 34.993-38.965-6.683-27.595 28.31-5.685-39.123z" fill="url(#SVGID_1_)"/><path d="m508.646 389.809-33.343-46.846 11.943-8.5c17.704-12.602 12.537-40.132-8.494-45.486l-46.38-11.811 4.03-47.69c.846-10.011-4.049-19.321-12.776-24.299-19.088-10.884-33.378 6.975-39.362 9.876-30.994-40.484-31.502-51.785-46.777-54.357-15.265-2.568-20.934 8.879-59.556 34.299l67.9 95.399h-252.781v184.5c0 20.678 16.822 37.5 37.5 37.5h240c20.678 0 37.5-16.822 37.5-37.5v-97.084l52.54 73.818 42.772-30.442c10.109-7.193 12.479-21.269 5.284-31.377zm-134.703-85.785 36.662-26.094 15.077 21.182-36.662 26.094zm108.838 7.736c1.861 9.965-8.76 12.483-16.175 18.982-3.868-5.434-21.676-30.456-25.54-35.885 28.052 8.753 39.67 5.952 41.715 16.903zm-66.586-93.552c9.663 5.51 3.239 15.174 2.308 44.95l-25.54-35.884c8.57-4.877 14.424-14.087 23.232-9.066zm-86.793-41.434c3.37-2.397 8.061-1.608 10.459 1.761l32.183 45.217h-.001l29.863 41.957-36.662 26.094-66.394-93.284zm-65.854 128.621v192h-26v-192zm-155.498 169.5v-169.5h114.498v192h-91.998c-12.406 0-22.5-10.094-22.5-22.5zm285 0c0 12.406-10.093 22.5-22.5 22.5h-92.002v-192h77.96l36.542 51.341zm101.615-65.929-30.552 21.745-66.395-93.284 36.662-26.094c5.441 7.645-12.392-17.41 62.046 87.173 2.398 3.371 1.608 8.062-1.761 10.46zm-394.115-249.966 62.144 32.67-11.869-69.197 50.275-49.006-69.478-10.097-31.072-62.957-31.071 62.957-69.479 10.096 50.275 49.006-11.868 69.198zm-68.316-75.061 47.205-6.858 21.111-42.775 21.111 42.775 47.205 6.858-34.158 33.297 8.064 47.014-42.222-22.197-42.221 22.197 8.064-47.014zm172.797 162.452 22.054 31.186 11.338-36.475 36.475-11.337-31.186-22.055.488-38.192-30.611 22.844-36.172-12.267 12.266 36.173-22.844 30.611zm-3.65-42.329 14.858 5.038 12.573-9.383-.201 15.687 12.809 9.059-14.981 4.657-4.657 14.98-9.059-12.809-15.687.201 9.383-12.574zm54.372-35.708 35.451-36.369 50.057 8.586-23.634-44.954 23.634-44.954-50.057 8.586-35.451-36.369-7.303 50.26-45.543 22.477 45.543 22.477zm6.407-85.253 4.067-27.987 19.74 20.252 27.874-4.781-13.16 25.032 13.16 25.032-27.874-4.781-19.74 20.252-4.067-27.987-25.36-12.516zm-199.165 141.924h15v15h-15zm48.035 15v-15h15v15zm-24.018-39.018h15v15h-15zm15 63.036h-15v-15h15zm282.021-175.075h-15v-15h15zm48.035 0h-15v-15h15zm-24.018-24.017h-15v-15h15zm0 48.036h-15v-15h15z" fill="url(#SVGID_2_)"/></g></svg>